<svg width="200" height="200" viewBox="0 0 200 200" fill="none" xmlns="http://www.w3.org/2000/svg">
<g clip-path="url(#clip0_6407_37055)">
<mask id="mask0_6407_37055" style="mask-type:luminance" maskUnits="userSpaceOnUse" x="0" y="0" width="200" height="200">
<path d="M200 0H0V200H200V0Z" fill="white"/>
</mask>
<g mask="url(#mask0_6407_37055)">
<path fill-rule="evenodd" clip-rule="evenodd" d="M60.0036 78.5255L72.2728 54.1172H73.2789L80.1925 68.0741H71.2017C70.7472 68.0741 70.52 68.2905 70.52 68.7233C70.52 69.1777 70.7472 69.405 71.2017 69.405H80.8742L85.4183 78.5255H86.2622V80.2461H84.3797L79.803 71.1252H71.2017C70.5092 71.1252 69.9358 70.898 69.4814 70.4436C69.0486 69.9891 68.8322 69.4158 68.8322 68.7233C68.8322 68.0091 69.0486 67.4358 69.4814 67.003C69.9142 66.5702 70.4875 66.3539 71.2017 66.3539H77.4336L72.7272 56.9411L61.0747 80.2461H59.1922V78.5255H60.0036ZM52.8861 75.7666V56.7139C52.8861 56.0214 53.1025 55.4589 53.5353 55.0261C53.9897 54.5716 54.563 54.3444 55.2555 54.3444C55.9697 54.3444 56.543 54.5608 56.9758 54.9936C57.4086 55.4263 57.625 55.9997 57.625 56.7139V77.8441C57.625 78.2986 57.8522 78.5255 58.3067 78.5255H59.1505L59.183 80.3108L58.2742 80.2136C56.7161 80.0405 55.9372 79.2505 55.9372 77.8441V56.7139C55.9372 56.2594 55.71 56.0322 55.2555 56.0322C54.8228 56.0322 54.6064 56.2594 54.6064 56.7139V80.2461H53.2755L42.4994 58.7911V77.8441C42.4994 78.5363 42.283 79.11 41.8503 79.5644C41.4175 79.9972 40.855 80.2136 40.1625 80.2136H39.2861L0.799805 80.2125V78.5227H39.2861L40.13 78.5255C40.5844 78.5255 40.8117 78.2986 40.8117 77.8441V54.2794H42.1425L52.8861 75.7666ZM89.9611 54.3769C88.7928 54.7013 88.2083 55.448 88.2083 56.6163C88.2083 56.8761 88.23 57.0925 88.2733 57.2655L93.2394 75.8966C93.3478 76.3077 93.4017 76.6647 93.4017 76.9677C93.4017 78.0063 92.9042 78.5255 91.9086 78.5255H86.2933V80.2461H91.9736C93.0122 80.2461 93.8561 79.813 94.5053 78.9477C94.9164 78.4066 95.1219 77.7466 95.1219 76.9677C95.1219 76.535 95.0464 76.0372 94.8947 75.4747L89.9286 56.8436C89.8205 56.4108 89.9719 56.1405 90.383 56.0322C90.8158 55.9025 91.0864 56.0539 91.1947 56.4866L96.5828 76.6105C96.8855 77.7141 97.7728 78.2661 99.2442 78.2661C100.716 78.2661 101.603 77.6925 101.906 76.5458L107.294 56.5191C107.402 56.0863 107.672 55.9239 108.105 56.0322C108.516 56.1405 108.668 56.4108 108.56 56.8436C108.408 57.4927 107.683 60.2408 106.385 65.088C104.957 70.4761 104.016 73.9166 103.561 75.4097C103.388 75.9938 103.301 76.5458 103.301 77.065C103.301 78.0172 103.604 78.7852 104.21 79.3697C104.838 79.9538 105.627 80.2461 106.58 80.2461H112.19H112.195H114.073L125.725 56.9411L130.432 66.3539H124.2C123.486 66.3539 122.912 66.5702 122.479 67.003C122.047 67.4358 121.83 68.0091 121.83 68.7233C121.83 69.4158 122.047 69.9891 122.479 70.4436C122.934 70.898 123.507 71.1252 124.2 71.1252H132.801L137.378 80.2461H139.26V78.5255H138.416L133.872 69.405H124.2C123.745 69.405 123.518 69.1777 123.518 68.7233C123.518 68.2905 123.745 68.0741 124.2 68.0741H133.191L126.277 54.1172H125.271L113.002 78.5255H112.195H112.19H106.547C105.141 78.5255 104.697 77.6386 105.216 75.8641C105.974 73.2891 107.64 67.0897 110.215 57.2655C110.28 57.0275 110.312 56.8219 110.312 56.6489C110.312 55.4372 109.717 54.6797 108.527 54.3769C108.267 54.3119 108.04 54.2794 107.846 54.2794C107.023 54.2794 106.385 54.6583 105.931 55.4155C105.779 55.6536 105.682 55.87 105.638 56.0647L100.283 76.0588C100.131 76.405 99.7853 76.5783 99.2442 76.5783C98.6817 76.5783 98.3353 76.4158 98.2055 76.0914C98.1839 76.048 96.3986 69.3616 92.85 56.0322C92.6769 55.383 92.3089 54.9069 91.7464 54.6041C91.2053 54.2794 90.6103 54.2036 89.9611 54.3769ZM140.817 54.2794V77.8766C140.817 78.2877 140.59 78.5041 140.135 78.5255L139.291 78.558V80.2461H140.168C140.86 80.2461 141.423 80.0297 141.856 79.5969C142.31 79.1425 142.537 78.5689 142.537 77.8766V55.9997H156.819C157.273 55.9997 157.5 56.2161 157.5 56.6489C157.5 57.0816 157.273 57.298 156.819 57.298H147.731C146.605 57.298 145.675 57.6658 144.939 58.4016C144.203 59.1375 143.836 60.0677 143.836 61.193C143.836 62.3183 144.203 63.2486 144.939 63.9844C145.675 64.7202 146.605 65.088 147.731 65.088H153.8C154.233 65.088 154.449 65.3044 154.449 65.7372C154.449 66.1916 154.233 66.4188 153.8 66.4188H147.731C146.605 66.4188 145.675 66.7866 144.939 67.5225C144.203 68.2364 143.836 69.1561 143.836 70.2814V80.2461H159.967V111.138L157.274 111.118C156.819 111.097 156.592 110.88 156.592 110.469V86.8719H155.359L146.66 98.4597L137.961 86.8719H136.728V110.469C136.728 110.88 136.501 111.097 136.046 111.118L135.202 111.151V112.839H136.079C136.771 112.839 137.334 112.622 137.767 112.189C138.221 111.735 138.448 111.162 138.448 110.469V90.345L146.66 101.316L154.872 90.345V110.469C154.872 111.162 155.088 111.735 155.521 112.189C155.976 112.622 156.549 112.839 157.241 112.839L159.961 112.829C160.126 112.829 160.284 112.805 160.434 112.761C161.157 112.557 161.688 111.892 161.688 111.103V80.2477C161.688 79.2972 160.918 78.5269 159.967 78.5269C159.943 78.5258 159.918 78.5255 159.893 78.5255H145.556V70.2814C145.556 69.6322 145.751 69.1127 146.14 68.7233C146.551 68.3122 147.081 68.1066 147.731 68.1066H153.8C154.514 68.1066 155.088 67.8902 155.521 67.4575C155.953 67.0247 156.17 66.4514 156.17 65.7372C156.17 65.0447 155.942 64.4822 155.488 64.0494C155.055 63.595 154.492 63.3677 153.8 63.3677H147.731C147.081 63.3677 146.551 63.173 146.14 62.7836C145.751 62.3725 145.556 61.8422 145.556 61.193C145.556 60.5438 145.751 60.0244 146.14 59.635C146.551 59.2239 147.081 59.0183 147.731 59.0183H156.819C157.511 59.0183 158.085 58.8019 158.539 58.3691C158.994 57.9147 159.221 57.3414 159.221 56.6489C159.221 55.9564 158.994 55.3939 158.539 54.9611C158.085 54.5066 157.511 54.2794 156.819 54.2794H140.817ZM60.6761 86.8719V110.469C60.6761 110.88 60.9033 111.097 61.3578 111.118L62.2017 111.151L62.1692 112.839H61.3253C60.6328 112.839 60.0594 112.622 59.605 112.189C59.1722 111.735 58.9558 111.162 58.9558 110.469V90.345L50.7439 101.316L42.5319 90.345V110.469C42.5319 111.162 42.3047 111.735 41.8503 112.189C41.4175 112.622 40.855 112.839 40.1625 112.839H35.2233V143.743L40.13 143.711C40.5844 143.689 40.8117 143.473 40.8117 143.062V119.465H42.0453L50.7439 131.052L59.4428 119.465H60.6761V143.062C60.6761 143.473 60.9033 143.689 61.3578 143.711L62.2017 143.743L62.1692 145.431H61.3253C60.6328 145.431 60.0594 145.215 59.605 144.782C59.1722 144.327 58.9558 143.754 58.9558 143.062V122.938L50.7439 133.909L42.5319 122.938V143.062C42.5319 143.754 42.3047 144.327 41.8503 144.782C41.4175 145.215 40.855 145.431 40.1625 145.431H35.2233C35.208 145.431 35.1928 145.432 35.1778 145.431H35.1547C34.2361 145.395 33.5022 144.638 33.5022 143.711V112.868C33.5022 111.918 34.2728 111.147 35.2233 111.147V111.15L40.13 111.118C40.5844 111.097 40.8117 110.88 40.8117 110.469V86.8719H42.0453L50.7439 98.4597L59.4428 86.8719H60.6761ZM78.8869 89.2414V102.874C78.8869 103.804 78.6597 104.713 78.2053 105.601C77.3397 107.267 75.8358 108.1 73.6936 108.1C71.5514 108.1 70.0475 107.267 69.1819 105.601C68.7058 104.67 68.4678 103.761 68.4678 102.874V89.2414C68.4678 88.5491 68.2405 87.9864 67.7861 87.5536C67.3533 87.0994 66.7908 86.8719 66.0983 86.8719C65.4275 86.8719 64.865 87.0994 64.4105 87.5536C63.9561 88.008 63.7289 88.5705 63.7289 89.2414V110.469C63.7289 110.88 63.5017 111.097 63.0472 111.118L62.2017 111.151L62.2033 112.839H63.0797C63.7722 112.839 64.3347 112.622 64.7675 112.189C65.2219 111.735 65.4492 111.162 65.4492 110.469V89.2414C65.4492 88.8086 65.6655 88.5925 66.0983 88.5925C66.5311 88.5925 66.7475 88.8086 66.7475 89.2414V102.874C66.7475 104.497 67.2236 105.957 68.1758 107.256C69.4308 108.965 71.27 109.82 73.6936 109.82C76.1172 109.82 77.9455 108.965 79.1789 107.256C80.1311 105.936 80.6072 104.475 80.6072 102.874V89.2414C80.6072 88.8086 80.8236 88.5925 81.2564 88.5925C81.7108 88.5925 81.938 88.8086 81.938 89.2414L81.9055 110.469C81.9055 111.162 82.1328 111.735 82.5872 112.189C83.0414 112.622 83.615 112.839 84.3075 112.839H85.1839L85.1514 111.151L84.3075 111.118C83.853 111.097 83.6258 110.88 83.6258 110.469V89.2414C83.6258 88.5491 83.3986 87.9864 82.9442 87.5536C82.5114 87.0994 81.9489 86.8719 81.2564 86.8719C80.5855 86.8719 80.023 87.0994 79.5686 87.5536C79.1142 88.008 78.8869 88.5705 78.8869 89.2414ZM101.867 96.8366V89.2414C101.867 88.5705 102.095 88.008 102.549 87.5536C103.004 87.0994 103.566 86.8719 104.237 86.8719C104.929 86.8719 105.492 87.0994 105.925 87.5536C106.379 87.9864 106.606 88.5491 106.606 89.2414V110.469C106.606 110.902 106.834 111.118 107.288 111.118H108.101H108.132H108.913L121.182 86.7097H122.188L129.102 100.667H120.111C119.656 100.667 119.429 100.883 119.429 101.316C119.429 101.77 119.656 101.997 120.111 101.997H129.783L134.327 111.118H135.171V112.839H133.289L128.712 103.718H120.111C119.418 103.718 118.845 103.491 118.391 103.036C117.958 102.582 117.741 102.008 117.741 101.316C117.741 100.602 117.958 100.028 118.391 99.5955C118.823 99.163 119.397 98.9464 120.111 98.9464H126.343L121.636 89.5336L109.984 112.839H108.132H108.101H107.288C106.596 112.839 106.022 112.622 105.568 112.189C105.135 111.735 104.919 111.162 104.919 110.469V89.2414C104.919 88.8086 104.691 88.5925 104.237 88.5925C103.804 88.5925 103.588 88.8086 103.588 89.2414V96.8366C103.588 97.9836 103.22 98.9141 102.484 99.628C101.77 100.342 100.84 100.699 99.6928 100.699H93.623C92.4764 100.699 91.535 100.342 90.7991 99.628C90.0853 98.9141 89.728 97.9836 89.728 96.8366V89.2414C89.728 88.8086 89.5117 88.5925 89.0789 88.5925C88.6461 88.5925 88.4297 88.8086 88.4297 89.2414V110.469C88.4297 111.162 88.2025 111.735 87.7483 112.189C87.3155 112.622 86.7528 112.839 86.0603 112.839H85.1839V111.151L86.028 111.118C86.4822 111.097 86.7094 110.88 86.7094 110.469V89.2414C86.7094 88.5491 86.9258 87.9864 87.3586 87.5536C87.813 87.0994 88.3867 86.8719 89.0789 86.8719C89.7714 86.8719 90.3342 87.0994 90.7669 87.5536C91.2211 87.9864 91.4483 88.5491 91.4483 89.2414V96.8041C91.4483 97.475 91.643 98.0161 92.0328 98.4272C92.4222 98.8166 92.9522 99.0114 93.623 99.0114H99.6928C100.342 99.0114 100.861 98.8166 101.251 98.4272C101.662 98.0161 101.867 97.4858 101.867 96.8366ZM63.7289 143.062V119.465H79.7308C80.4233 119.465 80.9967 119.692 81.4511 120.146C81.9055 120.579 82.1328 121.142 82.1328 121.834C82.1328 122.527 81.9055 123.1 81.4511 123.554C80.9967 123.987 80.4233 124.204 79.7308 124.204H70.6425C69.9933 124.204 69.4633 124.409 69.0519 124.82C68.6625 125.21 68.4678 125.729 68.4678 126.378C68.4678 127.027 68.6625 127.557 69.0519 127.969C69.4633 128.358 69.9933 128.553 70.6425 128.553H76.7122C77.4047 128.553 77.9672 128.78 78.4 129.234C78.8544 129.667 79.0817 130.23 79.0817 130.922C79.0817 131.636 78.8653 132.21 78.4325 132.643C77.9997 133.076 77.4264 133.292 76.7122 133.292H70.6425C69.9933 133.292 69.4633 133.497 69.0519 133.909C68.6625 134.298 68.4678 134.817 68.4678 135.467C68.4678 136.916 69.1928 137.641 70.6425 137.641H79.7308C80.4233 137.641 80.9967 137.868 81.4511 138.323C81.9055 138.777 82.1328 139.351 82.1328 140.043C82.1328 140.714 81.8947 141.277 81.4186 141.731C80.9642 142.185 80.4017 142.412 79.7308 142.412H69.1494C68.695 142.412 68.4678 142.629 68.4678 143.062C68.4678 143.494 68.695 143.711 69.1494 143.711H83.6258V143.742L84.443 143.711C84.8975 143.689 85.1247 143.473 85.1247 143.062V119.465H93.5639C95.468 119.465 97.3939 119.962 99.3414 120.958C103.128 122.884 105.021 126.205 105.021 130.922C105.021 135.661 103.128 138.994 99.3414 140.919C97.3939 141.915 95.468 142.412 93.5639 142.412H90.5128C90.015 142.412 89.7769 142.618 89.7986 143.029C89.8203 143.484 90.0691 143.711 90.5453 143.711H106.547V145.431H90.5453C89.8528 145.431 89.2794 145.215 88.825 144.782C88.3705 144.349 88.1325 143.787 88.1108 143.094C88.0892 142.359 88.3055 141.774 88.76 141.341C89.2144 140.909 89.8094 140.692 90.5453 140.692H93.5639C95.295 140.692 96.9719 140.27 98.5947 139.426C101.754 137.782 103.334 134.947 103.334 130.922C103.334 126.897 101.754 124.074 98.5947 122.451C96.9503 121.607 95.2733 121.185 93.5639 121.185H86.845V143.062C86.845 143.754 86.6178 144.327 86.1633 144.782C85.7305 145.215 85.168 145.431 84.4755 145.431H83.6258H83.5992H69.1494C68.4569 145.431 67.8836 145.215 67.4292 144.782C66.9747 144.327 66.7475 143.754 66.7475 143.062C66.7475 142.369 66.9747 141.807 67.4292 141.374C67.8836 140.919 68.4569 140.692 69.1494 140.692H79.7308C80.1853 140.692 80.4125 140.476 80.4125 140.043C80.4125 139.589 80.1853 139.361 79.7308 139.361H70.6425C69.5172 139.361 68.5869 138.994 67.8511 138.258C67.1153 137.522 66.7475 136.592 66.7475 135.467C66.7475 134.341 67.1153 133.422 67.8511 132.707C68.5869 131.972 69.5172 131.604 70.6425 131.604H76.7122C77.145 131.604 77.3614 131.377 77.3614 130.922C77.3614 130.49 77.145 130.273 76.7122 130.273H70.6425C69.5172 130.273 68.5869 129.905 67.8511 129.17C67.1153 128.434 66.7475 127.503 66.7475 126.378C66.7475 125.253 67.1153 124.322 67.8511 123.587C68.5869 122.851 69.5172 122.483 70.6425 122.483H79.7308C80.1853 122.483 80.4125 122.267 80.4125 121.834C80.4125 121.401 80.1853 121.185 79.7308 121.185H65.4492V143.062C65.4492 143.754 65.2219 144.327 64.7675 144.782C64.3347 145.215 63.7722 145.431 63.0797 145.431H62.2033L62.2017 143.743L63.0472 143.711C63.5017 143.689 63.7289 143.473 63.7289 143.062ZM109.437 141.991C109.048 142.315 108.853 142.878 108.853 143.678C108.853 144.457 109.048 145.02 109.437 145.366C109.827 145.712 110.292 145.886 110.833 145.886C111.396 145.886 111.872 145.712 112.261 145.366C112.672 145.02 112.878 144.457 112.878 143.678C112.878 142.878 112.672 142.315 112.261 141.991C111.872 141.666 111.396 141.504 110.833 141.504C110.292 141.504 109.827 141.666 109.437 141.991ZM136.591 143.062V119.465H135.358L126.659 131.052L117.96 119.465H116.727V143.062C116.727 143.473 116.5 143.689 116.045 143.711L115.201 143.743V145.431H116.078C116.77 145.431 117.333 145.215 117.766 144.782C118.22 144.327 118.447 143.754 118.447 143.062V122.938L126.659 133.909L134.871 122.938V143.062C134.871 143.754 135.087 144.327 135.52 144.782C135.975 145.215 136.548 145.431 137.241 145.431H138.084L138.117 143.743L137.273 143.711C136.819 143.689 136.591 143.473 136.591 143.062ZM139.644 143.062V119.465H155.646C156.338 119.465 156.912 119.692 157.366 120.146C157.821 120.579 158.048 121.142 158.048 121.834C158.048 122.527 157.821 123.1 157.366 123.554C156.912 123.987 156.338 124.204 155.646 124.204H146.558C145.909 124.204 145.378 124.409 144.967 124.82C144.578 125.21 144.383 125.729 144.383 126.378C144.383 127.027 144.578 127.557 144.967 127.969C145.378 128.358 145.909 128.553 146.558 128.553H152.627C153.32 128.553 153.882 128.78 154.315 129.234C154.77 129.667 154.997 130.23 154.997 130.922C154.997 131.636 154.781 132.21 154.348 132.643C153.915 133.076 153.341 133.292 152.627 133.292H146.558C145.909 133.292 145.378 133.497 144.967 133.909C144.578 134.298 144.383 134.817 144.383 135.467C144.383 136.916 145.108 137.641 146.558 137.641H155.646C156.338 137.641 156.912 137.868 157.366 138.323C157.821 138.777 158.048 139.351 158.048 140.043C158.048 140.714 157.81 141.277 157.334 141.731C156.879 142.185 156.317 142.412 155.646 142.412H145.065C144.61 142.412 144.383 142.629 144.383 143.062C144.383 143.494 144.61 143.711 145.065 143.711H159.521V143.706H200.756V145.427H159.541V145.431H145.065C144.372 145.431 143.799 145.215 143.344 144.782C142.89 144.327 142.663 143.754 142.663 143.062C142.663 142.369 142.89 141.807 143.344 141.374C143.799 140.919 144.372 140.692 145.065 140.692H155.646C156.1 140.692 156.327 140.476 156.327 140.043C156.327 139.589 156.1 139.361 155.646 139.361H146.558C145.432 139.361 144.502 138.994 143.766 138.258C143.031 137.522 142.663 136.592 142.663 135.467C142.663 134.341 143.031 133.422 143.766 132.707C144.502 131.972 145.432 131.604 146.558 131.604H152.627C153.06 131.604 153.277 131.377 153.277 130.922C153.277 130.49 153.06 130.273 152.627 130.273H146.558C145.432 130.273 144.502 129.905 143.766 129.17C143.031 128.434 142.663 127.503 142.663 126.378C142.663 125.253 143.031 124.322 143.766 123.587C144.502 122.851 145.432 122.483 146.558 122.483H155.646C156.1 122.483 156.327 122.267 156.327 121.834C156.327 121.401 156.1 121.185 155.646 121.185H141.364V143.062C141.364 143.754 141.137 144.327 140.683 144.782C140.25 145.215 139.687 145.431 138.995 145.431H138.119L138.117 143.743L138.962 143.711C139.417 143.689 139.644 143.473 139.644 143.062Z" fill="white"/>
</g>
</g>
<defs>
<clipPath id="clip0_6407_37055">
<rect width="200" height="200" fill="white"/>
</clipPath>
</defs>
</svg>
